<?xml version="1.0" encoding="UTF-8" standalone="no" ?>
<!DOCTYPE svg PUBLIC "-//W3C//DTD SVG 1.1//EN" "http://www.w3.org/Graphics/SVG/1.1/DTD/svg11.dtd">
<svg xmlns="http://www.w3.org/2000/svg" xmlns:xlink="http://www.w3.org/1999/xlink" version="1.1" width="282" height="173" viewBox="0 0 282 173" xml:space="preserve">
<desc>Created with Fabric.js 5.2.4</desc>
<defs>
</defs>
<rect x="0" y="0" width="100%" height="100%" fill="transparent"></rect>
<g transform="matrix(0 0 0 0 0 0)" id="2b1916c6-4e64-42b8-a068-40dfaeac470d"  >
</g>
<g transform="matrix(1 0 0 1 141 86.5)" id="d4776813-b848-4f62-9c52-8ddfbba6efba"  >
<rect style="stroke: none; stroke-width: 1; stroke-dasharray: none; stroke-linecap: butt; stroke-dashoffset: 0; stroke-linejoin: miter; stroke-miterlimit: 4; fill: rgb(255,255,255); fill-rule: nonzero; opacity: 1; visibility: hidden;" vector-effect="non-scaling-stroke"  x="-141" y="-86.5" rx="0" ry="0" width="282" height="173" />
</g>
<g transform="matrix(0.61 0 0 0.61 85 63.93)"  >
<rect style="stroke: none; stroke-width: 1; stroke-dasharray: none; stroke-linecap: butt; stroke-dashoffset: 0; stroke-linejoin: miter; stroke-miterlimit: 4; fill: rgb(255,255,255); fill-opacity: 0; fill-rule: nonzero; opacity: 1;" vector-effect="non-scaling-stroke"  x="-50" y="-50" rx="0" ry="0" width="100" height="100" />
</g>
<g transform="matrix(0.61 0 0 0.61 140.51 86.19)" id="be8065ed-9284-45d5-81ea-976e87d93517"  >
<rect style="stroke: none; stroke-width: 1; stroke-dasharray: none; stroke-linecap: butt; stroke-dashoffset: 0; stroke-linejoin: miter; stroke-miterlimit: 4; fill: rgb(255,255,255); fill-rule: nonzero; opacity: 1; visibility: hidden;" vector-effect="non-scaling-stroke"  x="-141" y="-86.5" rx="0" ry="0" width="282" height="173" />
</g>
<g transform="matrix(1 0 0 1 141 86.5)"  >
<path style="stroke: none; stroke-width: 1; stroke-dasharray: none; stroke-linecap: butt; stroke-dashoffset: 0; stroke-linejoin: miter; stroke-miterlimit: 4; fill: rgb(0,0,0); fill-opacity: 0.05; fill-rule: evenodd; opacity: 1;" vector-effect="non-scaling-stroke"  transform=" translate(-138.38, -88.63)" d="M 16.4571 45.1637 C 11.0514 46.1711 7.48574 51.3699 8.49306 56.7756 C 9.50039 62.1814 14.6992 65.747 20.105 64.7397 L 27.5528 63.3518 C 25.4791 65.5835 24.4525 68.7347 25.0535 71.9596 C 26.0608 77.3653 31.2596 80.931 36.6654 79.9236 L 89.691 70.0427 C 89.7016 70.1067 89.7129 70.1708 89.7249 70.2349 C 90.3258 73.4598 92.4185 76.0298 95.1569 77.3647 L 91.9031 77.971 C 86.4974 78.9784 82.9318 84.1772 83.9391 89.583 C 84.9464 94.9887 90.1452 98.5543 95.551 97.547 L 250.098 68.7482 C 255.504 67.7409 259.069 62.5421 258.062 57.1363 C 257.461 53.9114 255.368 51.3414 252.63 50.0065 L 257.835 49.0366 C 263.241 48.0292 266.807 42.8304 265.799 37.4247 C 264.792 32.0189 259.593 28.4533 254.187 29.4606 L 161.492 46.7338 C 161.481 46.6697 161.47 46.6056 161.458 46.5415 C 160.857 43.3166 158.764 40.7466 156.026 39.4117 L 165.025 37.7347 C 170.431 36.7274 173.997 31.5286 172.989 26.1228 C 171.982 20.7171 166.783 17.1514 161.378 18.1588 L 16.4571 45.1637 Z M 24.3031 122.54 C 23.2958 117.134 26.8614 111.936 32.2672 110.928 L 190.856 81.3762 C 196.262 80.3688 201.461 83.9345 202.468 89.3402 C 203.476 94.746 199.91 99.9448 194.504 100.952 L 189.963 101.798 C 190.493 102.057 190.999 102.362 191.474 102.708 L 246.43 92.4677 C 251.835 91.4604 257.034 95.026 258.041 100.432 C 258.642 103.657 257.616 106.808 255.542 109.04 L 256.649 108.833 C 262.055 107.826 267.253 111.392 268.261 116.797 C 269.268 122.203 265.702 127.402 260.297 128.409 L 95.5591 159.107 C 90.1534 160.114 84.9545 156.549 83.9472 151.143 C 82.9399 145.737 86.5055 140.538 91.9113 139.531 L 103.94 137.29 C 103.41 137.031 102.904 136.726 102.429 136.38 L 29.1002 150.044 C 23.6944 151.051 18.4956 147.486 17.4882 142.08 C 16.4809 136.674 20.0465 131.475 25.4523 130.468 L 29.7352 129.67 C 26.9967 128.335 24.904 125.765 24.3031 122.54 Z" stroke-linecap="round" />
</g>
<g transform="matrix(1 0 0 1 141 86.5)" id="7793582c-664f-4d1a-af79-18f2f165cded"  >
<path style="stroke: rgb(0,0,0); stroke-width: 0; stroke-dasharray: none; stroke-linecap: butt; stroke-dashoffset: 0; stroke-linejoin: miter; stroke-miterlimit: 4; fill: rgb(179,73,73); fill-rule: nonzero; opacity: 1;" vector-effect="non-scaling-stroke"  transform=" translate(-50, -50)" d="M 24.442 24.417 C 38.551 10.306000000000001 61.448 10.306000000000001 75.557 24.417 C 89.718 38.576 89.718 61.473 75.557 75.584 C 61.448 89.694 38.551 89.694 24.442 75.584 C 10.281 61.473 10.281 38.576 24.442 24.417 z M 34.835 29.637 L 70.388 65.188 C 77.768 55.196 76.965 41.087 67.977 32.048 C 58.94 23.01 44.779 22.208 34.835 29.637 z M 65.164 70.361 L 29.615 34.86 C 22.232 44.803 23.034 58.963 32.022999999999996 67.951 C 41.063 76.99 55.225 77.793 65.164 70.361 z" stroke-linecap="round" />
</g>
</svg>